<svg xmlns="http://www.w3.org/2000/svg" data-name="Layer 1" viewBox="0 0 512 640" x="0px" y="0px"><path d="M387.88086,119.10791C353.4668,75.59766,306.63086,51.63525,256,51.63525c-5.158,0-10.27393.262-15.344.75464A20.01876,20.01876,0,0,1,256,19.5a20.13112,20.13112,0,0,1,19.81348,17.07422,3.50049,3.50049,0,0,0,6.92578-1.02344,27.03217,27.03217,0,0,0-53.76953,3.97949,26.8864,26.8864,0,0,0,3.78759,13.8191c-41.61181,6.18847-79.55957,28.99389-108.63818,65.75854C89.13867,163.335,69.874,224.72705,69.874,291.9751c0,66.31689,18.84375,120.51806,54.49512,156.74316C157.06445,481.93994,202.582,499.5,256,499.5s98.93555-17.56006,131.63086-50.78174c35.65137-36.2251,54.49512-90.42578,54.49512-156.74316C442.126,224.72705,422.86133,163.335,387.88086,119.10791Zm-258.27148,4.34277C162.668,81.65381,207.55371,58.63525,256,58.63525s93.332,23.01856,126.39062,64.81543a209.93309,209.93309,0,0,1,13.68726,19.54883L371.00659,163.6709l-10.158-37.24658a3.50028,3.50028,0,0,0-2.92968-2.5503l-54.05567-6.96191a3.48592,3.48592,0,0,0-1.51367.13769L256,131.874,209.65039,117.0498a3.51573,3.51573,0,0,0-1.51367-.13769L154.08105,123.874a3.50028,3.50028,0,0,0-2.92968,2.5503l-10.158,37.24658-25.07129-20.67139A209.93309,209.93309,0,0,1,129.60938,123.45068ZM382.6416,443.80859C351.292,475.6626,307.5,492.5,256,492.5s-95.292-16.8374-126.6416-48.69189C101.28027,415.27783,84.03418,374.96338,78.67773,325.979l41.84961-41.84912a3.5,3.5,0,0,0-4.94922-4.95019L77.8335,316.92383q-.94776-12.15015-.95948-24.94873c0-53.4878,12.42383-103.10718,35.40259-142.90821l27.69287,22.833,13.7063,38.80811L130.02637,265.0752a3.50263,3.50263,0,0,0-.19629,2.20019l15.40527,65.26318a3.50016,3.50016,0,0,0,5.12207,2.2461l17.02539-9.57666,32.74805,12.09521a3.53249,3.53249,0,0,0,1.73926.17725L256,329.24658l54.12988,8.23389a3.50748,3.50748,0,0,0,1.73926-.17725l32.748-12.09521,17.02539,9.57666a3.50016,3.50016,0,0,0,5.12207-2.2461l13.96313-59.1538L433.32227,325.979C427.96606,374.96387,410.72,415.27832,382.6416,443.80859ZM381.709,264.4668l-23.38476-53.75928,7.38379-20.9082a3.4996,3.4996,0,1,0-6.59961-2.33106l-7.84278,22.207a3.50155,3.50155,0,0,0,.08985,2.56153l23.73437,54.563-14.06933,59.60352L346.63867,318.314a3.49614,3.49614,0,0,0-2.92871-.23291L310.29,330.42432l-53.76367-8.17774a3.45917,3.45917,0,0,0-1.05274,0L201.71,330.42432,168.29,318.08105a3.495,3.495,0,0,0-2.92871.23291l-14.38184,8.08936L136.91016,266.7998l23.73437-54.563a3.50155,3.50155,0,0,0,.08985-2.56153l-14.125-39.99267L157.291,130.51855l50.96777-6.56445,46.6748,14.92822a3.50317,3.50317,0,0,0,2.13282,0l46.6748-14.92822,50.96777,6.56445,10.96875,40.21924a3.48829,3.48829,0,0,0,5.60035,1.77417l28.44531-23.44507c22.97876,39.801,35.40259,89.42041,35.40259,142.90821q0,12.79833-.95948,24.94873Z"/><path d="M163.73535,366.04736a28.5,28.5,0,1,0,28.5,28.5A28.53242,28.53242,0,0,0,163.73535,366.04736Zm9.95093,11.46973c-.08594.00879-.17163.01807-.25757.02783a25.00932,25.00932,0,0,0-20.64551,33.23047,13.06071,13.06071,0,0,0,1.61646,3.10938,21.47685,21.47685,0,1,1,22.51245-36.28956A12.79088,12.79088,0,0,0,173.68628,377.51709Z"/><path d="M256,366.04736a28.5,28.5,0,1,0,28.5,28.5A28.53242,28.53242,0,0,0,256,366.04736Zm9.95117,11.46973q-.12853.01318-.25757.02783a25.0093,25.0093,0,0,0-20.6455,33.23047,13.06543,13.06543,0,0,0,1.61694,3.10986,21.4769,21.4769,0,1,1,22.51172-36.29A12.78926,12.78926,0,0,0,265.95117,377.51709Z"/><path d="M348.26465,366.04736a28.5,28.5,0,1,0,28.5,28.5A28.53242,28.53242,0,0,0,348.26465,366.04736Zm9.95166,11.46973q-.12891.01318-.25781.02783A25.00988,25.00988,0,0,0,337.313,410.77539a13.07458,13.07458,0,0,0,1.61719,3.10986,21.47675,21.47675,0,1,1,22.511-36.29A12.78313,12.78313,0,0,0,358.21631,377.51709Z"/><path d="M322.542,153.20239H189.458a7.45714,7.45714,0,0,0-7.45728,7.45728v133.084a7.45735,7.45735,0,0,0,7.45728,7.45752H322.542a7.45735,7.45735,0,0,0,7.45728-7.45752v-133.084A7.45714,7.45714,0,0,0,322.542,153.20239Zm-92.49511,93.04175a3.5,3.5,0,0,1-2.47461-5.9751l47.55664-47.55566a3.5,3.5,0,1,1,4.94921,4.95019l-47.55664,47.55567A3.48853,3.48853,0,0,1,230.04688,246.24414Zm54.38085-23.93262-27.25781,27.25782a3.5,3.5,0,0,1-4.94922-4.9502l27.25782-27.25781a3.5,3.5,0,0,1,4.94921,4.95019Z"/><text x="0" y="527" fill="#000000" font-size="5px" font-weight="bold" font-family="'Helvetica Neue', Helvetica, Arial-Unicode, Arial, Sans-serif">Created by iconfield</text><text x="0" y="532" fill="#000000" font-size="5px" font-weight="bold" font-family="'Helvetica Neue', Helvetica, Arial-Unicode, Arial, Sans-serif">from the Noun Project</text></svg>